REM MD5 bce2f7f0f38fcdfa7f106b455ba8023d
FILE "Euro Demo 32 (Europe).bin" BINARY
  TRACK 01 MODE2/2352
    INDEX 01 00:00:00
  TRACK 02 AUDIO
    INDEX 00 34:20:06
    INDEX 01 34:22:06
  TRACK 03 AUDIO
    INDEX 00 36:17:66
    INDEX 01 36:19:66
  TRACK 04 AUDIO
    INDEX 00 39:53:70
    INDEX 01 39:55:70
  TRACK 05 AUDIO
    INDEX 00 45:29:68
    INDEX 01 45:31:68
REM LEADOUT 48:33:24
